<?xml version="1.0" standalone="no"?><!DOCTYPE svg PUBLIC "-//W3C//DTD SVG 1.1//EN" "http://www.w3.org/Graphics/SVG/1.1/DTD/svg11.dtd"><svg t="1619605433157" class="icon" viewBox="0 0 1024 1024" version="1.1" xmlns="http://www.w3.org/2000/svg" p-id="2310" xmlns:xlink="http://www.w3.org/1999/xlink" width="200" height="200"><defs><style type="text/css"></style></defs><path d="M748.8 444c-4-14.4-15.2-25.6-29.6-30.4-8.8-3.2-18.4-4.8-28-4H340.8c-7.2-0.8-14.4-0.8-20.8 0-16.8 3.2-31.2 16-36 32-0.8 5.6-0.8 12 0 16.8V672c-0.8 20.8 12 38.4 31.2 44.8 6.4 2.4 12.8 3.2 19.2 3.2h366.4c18.4 0.8 35.2-9.6 42.4-26.4 4-9.6 5.6-19.2 4.8-29.6V465.6c1.6-7.2 1.6-13.6 0.8-21.6z m-308 124.8c0.8 10.4-3.2 20.8-8.8 28.8-16 19.2-44 22.4-63.2 7.2-4-3.2-8-8-10.4-12-4.8-9.6-6.4-20-5.6-30.4v-44.8c3.2-20 19.2-36 39.2-38.4l3.2 0.8c11.2-0.8 22.4 3.2 31.2 10.4 9.6 8 15.2 20.8 16 33.6l-1.6 44.8z m234.4-1.6c0.8 10.4-1.6 20.8-7.2 29.6-14.4 20.8-42.4 25.6-62.4 12-4.8-3.2-8.8-7.2-12-12-5.6-9.6-8-20.8-7.2-32V520c2.4-20.8 18.4-36.8 39.2-40l0.8-0.8c24.8-1.6 46.4 16.8 48 41.6 0.8 0 0.8 46.4 0.8 46.4z" p-id="2311"></path><path d="M512 0C228.8 0 0 228.8 0 512s228.8 512 512 512 512-228.8 512-512S795.2 0 512 0z m316 725.6c-5.6 26.4-22.4 49.6-44.8 63.2-16 9.6-33.6 14.4-51.2 14.4H317.6c-13.6 0.8-27.2 0-40.8-2.4-25.6-5.6-48-22.4-62.4-44.8-9.6-15.2-14.4-33.6-14.4-52V447.2c-0.8-12-0.8-24.8 0-37.6 8-44 44.8-76.8 90.4-80h59.2c-9.6-7.2-17.6-14.4-26.4-22.4-10.4-9.6-16-23.2-14.4-36.8 0.8-14.4 9.6-28 22.4-36 12-5.6 26.4-5.6 38.4 0 8.8 4.8 16.8 9.6 23.2 16.8l90.4 79.2H548l90.4-79.2c7.2-7.2 14.4-12.8 23.2-16.8 23.2-8 49.6 4 57.6 27.2l2.4 9.6c0.8 11.2-3.2 21.6-9.6 30.4-6.4 6.4-12.8 12-20 18.4-4 3.2-8 7.2-12.8 10.4h56c24.8 0.8 49.6 12 66.4 29.6 18.4 16.8 29.6 40.8 30.4 66.4v259.2c-0.8 13.6-1.6 26.4-4 40z" p-id="2312"></path></svg>